<svg width="458" height="247" viewBox="0 0 458 247" fill="none" xmlns="http://www.w3.org/2000/svg">
<g clip-path="url(#clip0_429_2455)">
<path d="M31.17 153.25C32.26 150.36 31.66 147.33 31.89 144.37C34.68 109 50.5 80 75.72 55.73C99.91 32.47 128.82 17.56 160.94 8.63002C192.595 -0.114185 225.708 -2.26863 258.23 2.30002C294.53 7.20002 327.97 19.53 357.59 41.36C379.59 57.62 397.11 77.74 408.2 103.04C414.851 118.036 418.385 134.227 418.59 150.63C418.59 152.87 419.33 153.19 421.3 153.18C425.7 153.18 430.15 152.65 434.49 153.82C446.74 157.14 457.66 171.4 457.66 184.05C457.66 197.137 457.66 210.23 457.66 223.33C457.66 236.9 448.59 245.93 435.02 245.93C300.94 245.93 166.86 245.97 32.78 246.05C23.04 246.05 15.55 242.35 8.96 235.82C4.9 231.82 1.39 227.47 0.310004 221.61C0.103062 220.505 -0.000717947 219.384 3.738e-06 218.26C3.738e-06 203.593 3.738e-06 188.9 3.738e-06 174.18C0.0118747 168.773 2.10195 163.578 5.83775 159.669C9.57354 155.76 14.6691 153.437 20.07 153.18C22.41 153.08 24.77 153.18 27.12 153.18C27.24 154.01 27.43 154.83 27.47 155.67C27.57 158 27.97 160.41 27.53 162.67C27.28 163.94 25.61 165.1 25.72 166.6C25.89 168.88 23.61 171.8 27.26 173.33C27.3868 173.391 27.4937 173.487 27.5686 173.607C27.6434 173.726 27.6831 173.864 27.6831 174.005C27.6831 174.146 27.6434 174.284 27.5686 174.403C27.4937 174.523 27.3868 174.619 27.26 174.68C24.02 175.4 25.91 177.34 26.18 178.89C19.49 191.3 13.05 203.83 6 216C3.19 220.81 4.19 224.46 7 228.28C8.35887 230.047 9.89707 231.669 11.59 233.12C13.35 234.69 14.82 234.24 16.01 232.02C17.7 228.87 19.36 225.71 21.12 222.61C21.39 222.12 21.34 220.95 22.52 221.43C22.64 221.52 22.45 221.99 22.87 221.73L22.59 221.37C21.99 221.11 22.13 220.72 22.41 220.31C24.87 221.31 23.95 219.17 24.34 218.24H27.16C27.16 224.43 27.21 230.62 27.16 236.81C27.16 238.48 27.63 239.13 29.39 239.12C43.17 239.05 56.96 239.06 70.75 239.04H169.49C176.35 239.04 183.21 239.04 190.07 239.15C192.2 239.15 193.5 238.56 193.93 236.43C206.483 236.37 219.03 236.303 231.57 236.23C232.57 236.23 233.63 236.54 234.57 235.89H235.66C236.45 236.32 237.23 236.73 237.83 235.62C237.83 231.2 237.71 226.78 237.93 222.38C238.05 219.96 237.26 219.49 234.93 219.5C221.79 219.56 208.65 219.43 195.51 219.37C195.35 219.05 195.2 218.46 195.03 218.45C192.63 218.39 192.61 216.84 192.67 215.03C192.8 211.19 192.3 207.29 193.83 203.59C200.88 203.59 207.93 203.68 214.97 203.42C219.64 203.24 224.36 203.42 228.86 201.29C233.62 199.08 236.67 195.66 237.86 190.63C239.05 185.6 238.66 180.54 238.41 175.48C237.96 166.26 233.22 160.62 224.23 158.25C221.69 157.581 219.085 157.192 216.46 157.09C215.37 156.3 214.11 156.62 212.93 156.61C203.93 156.51 194.99 156.47 186.01 156.41C184.18 155.7 185.69 154.3 185.37 153.27C186.12 153.27 186.87 153.17 187.62 153.17C196.47 153.17 205.32 153.17 214.17 153.08C215.17 153.08 216.44 153.61 217.03 152.03C218.12 149.11 220.73 148.2 223.43 147.57C227.769 146.735 232.153 146.154 236.56 145.83C239.186 145.695 241.773 145.135 244.22 144.17C244.786 144.016 245.282 143.673 245.625 143.197C245.967 142.721 246.137 142.142 246.104 141.557C246.071 140.971 245.838 140.415 245.444 139.98C245.051 139.546 244.519 139.26 243.94 139.17C242.77 138.84 241.571 138.622 240.36 138.52C232.92 138.05 225.5 138.83 218.06 138.97C215.612 139.188 213.147 138.793 210.89 137.82C207.36 136.02 207.22 132.13 210.56 129.98C211.627 129.395 212.777 128.977 213.97 128.74C215.85 128.22 217.97 128.64 219.75 127.48C217.8 124.14 217.56 120.48 217.99 116.81C218.25 114.6 217.5 114.06 215.41 114.2C212.89 114.37 210.33 114.2 207.79 114.2C203.73 114.12 204.13 114.8 204.12 110.34C204.12 103.84 204 97.34 204.12 90.84C204.18 88.53 203.41 88.09 201.29 88.1C183.78 88.19 166.29 88.18 148.75 88.21C146.964 88.284 145.176 88.126 143.43 87.74C140.43 86.97 138.85 85.02 138.97 82.11C139.09 79.2 140.81 77.32 143.92 76.94C145.886 76.733 147.863 76.6462 149.84 76.68C166.967 76.68 184.103 76.68 201.25 76.68C203.15 76.68 204.02 76.38 204.16 74.15C204.62 66.99 204.28 59.84 204.06 52.69C204 50.69 204.63 50.21 206.56 50.22C218.8 50.3 231.04 50.3 243.28 50.22C245.12 50.22 245.7 50.68 245.68 52.56C245.61 59.62 245.8 66.69 245.68 73.75C245.68 75.94 246.23 76.53 248.45 76.53C266.15 76.53 283.85 76.53 301.55 76.66C303.431 76.6131 305.311 76.7639 307.16 77.11C308.433 77.3221 309.575 78.0181 310.346 79.0525C311.118 80.0868 311.459 81.3795 311.3 82.66C311.211 83.9821 310.65 85.2282 309.72 86.1716C308.789 87.1149 307.551 87.6928 306.23 87.8C303.99 88 301.72 88.12 299.47 88.12C282.33 88.12 265.19 88.18 248.06 88.12C246.06 88.12 245.57 88.65 245.6 90.61C245.73 97.38 245.51 104.17 245.72 110.94C245.81 113.73 244.88 114.58 242.25 114.37C240 114.2 237.73 114.37 235.47 114.37C231.84 114.37 231.87 114.3 231.96 117.79C231.96 119.29 231.89 120.79 231.86 122.29C231.77 126.04 229.86 128.29 226.4 129.66C223.533 130.858 220.496 131.601 217.4 131.86C215.57 132.01 213.64 132.12 212.29 133.86C213.67 135.01 215.29 135.06 216.83 135.14C223.9 135.48 230.92 134.3 237.99 134.55C240.814 134.504 243.615 135.056 246.21 136.17C247.291 136.644 248.208 137.426 248.846 138.419C249.485 139.411 249.817 140.57 249.8 141.75C249.87 142.882 249.589 144.009 248.994 144.975C248.4 145.942 247.522 146.701 246.48 147.15C244.904 147.988 243.19 148.537 241.42 148.77C235.84 149.55 230.25 150.23 224.68 151.04C223.947 151.059 223.233 151.27 222.608 151.652C221.983 152.035 221.469 152.576 221.12 153.22H262.67C262.77 154.99 263.67 156.95 261.51 158.17C260.41 158.41 259.3 158.62 258.21 158.9C250.28 160.99 246.72 165.32 246.36 173.53C246.21 177.1 246.36 180.69 246.36 184.26C247.02 185.4 247.98 184.87 248.88 184.72C254.43 184.5 259.98 184.54 265.53 184.78V208.12L247.14 208.19C247.059 208.153 246.969 208.136 246.88 208.14C246.79 208.145 246.703 208.171 246.626 208.216C246.549 208.261 246.483 208.324 246.435 208.399C246.387 208.475 246.358 208.561 246.35 208.65C246.35 212.22 246.26 215.8 246.41 219.36C246.79 227.81 250.24 231.96 258.41 234.11C263.17 235.38 268.05 235.51 272.92 235.84C272.72 238.19 273.61 239.37 276.15 239.15C278.3 238.97 280.47 239.05 282.63 239.02H310.83H365.55H393.77C400.397 239.02 407.023 239.043 413.65 239.09C417.46 239.09 417.46 239.09 416.47 235.83C420.78 235.61 425.1 235.47 429.41 235.15C441.3 234.26 446.63 229.34 446.8 218.41C447.033 203.743 447.033 189.077 446.8 174.41C446.65 164.56 442.01 159.78 432.21 158.28C426.62 157.544 420.989 157.156 415.35 157.12C416.16 153.36 416.16 153.36 412.12 153.24H410.75C411.45 152.55 411.24 151.65 411.21 150.83C411.041 144.622 410.439 138.434 409.41 132.31C404.91 107.47 393.52 86.08 376.65 67.55C354.12 42.79 326.14 26.71 294.54 16.47C292.36 15.76 291.44 15.94 291.13 18.4C290.56 22.94 287.87 26.06 283.91 28.17C279.683 30.2561 275.013 31.2856 270.3 31.17C262.58 31.27 254.85 30.95 247.14 31.27C237.47 31.67 230.53 34.08 229.4 46.87C229.15 49.68 227.4 49.32 225.66 49.24C223.15 49.13 224.74 47.31 224.66 46.24C224.653 45.3016 224.753 44.3654 224.96 43.45C226 33.43 232 27.66 242.06 27.17C247.98 26.88 253.92 26.85 259.84 26.57C269.5 26.1 273.84 22.1 274.52 13.34C274.64 11.74 274.33 11.08 272.52 10.74C265.88 9.45002 259.22 8.26002 252.52 7.55002C229.674 4.99209 206.58 5.68903 183.93 9.62002C154.93 14.85 127.93 25.09 103.46 41.72C85.68 53.82 70.58 68.62 58.93 86.79C46.5531 105.911 39.6818 128.071 39.07 150.84C39.07 152.58 38.39 153.51 36.4 153.29C34.6587 153.182 32.9128 153.169 31.17 153.25ZM271.87 27C272.979 27.3863 274.175 27.4521 275.32 27.19C281.38 26.65 286.08 23.29 287.32 18.66C288.39 14.75 288.32 14.66 284.32 13.66C283.06 13.34 281.79 13.03 280.54 12.66C278.92 12.17 278.04 12.26 277.94 14.41C277.74 19.28 276.33 23.82 271.87 27ZM24.87 223.7C24.4993 224.26 24.3142 224.923 24.3412 225.594C24.3681 226.266 24.6056 226.911 25.02 227.44C25.2945 226.85 25.424 226.202 25.3979 225.552C25.3719 224.901 25.1909 224.266 24.87 223.7V223.7Z" fill="#3B3A3A"/>
<path d="M31.1701 153.25C32.9155 153.155 34.6647 153.155 36.4101 153.25C38.4101 153.47 39.0401 152.54 39.0801 150.8C39.0001 153 40.2901 153.1 42.0001 153.1C53.8101 153.1 65.6201 153.19 77.4301 153.25C77.1801 154.42 76.9401 155.6 76.6901 156.78C76.6242 156.819 76.5475 156.835 76.4717 156.826C76.3959 156.817 76.3251 156.783 76.2701 156.73C76.2701 155.85 76.2701 154.93 75.1001 154.95C74.1001 154.95 72.3201 154.53 72.2801 155.29C72.1201 157.77 70.2801 156.55 69.6701 156.43C66.9401 155.93 64.3301 156.61 61.6701 156.79L59.3201 156.97C59.0201 156.68 58.4301 156.66 58.4501 156.97C58.5801 158.46 57.4501 158.88 56.5101 159.47C55.6801 157.54 54.3401 156.81 52.1401 156.95C48.4001 157.18 44.6401 157.14 40.9001 157.01C40.1298 156.908 39.3476 157.066 38.6774 157.46C38.0072 157.853 37.4873 158.458 37.2001 159.18C33.6401 165.82 29.8901 172.36 26.2001 178.94C25.9301 177.39 24.0401 175.45 27.2801 174.73C27.4069 174.669 27.5138 174.573 27.5887 174.453C27.6635 174.334 27.7032 174.196 27.7032 174.055C27.7032 173.914 27.6635 173.776 27.5887 173.657C27.5138 173.537 27.4069 173.441 27.2801 173.38C23.6301 171.85 25.9101 168.93 25.7401 166.65C25.6301 165.15 27.3001 163.99 27.5501 162.72C27.9901 160.48 27.5501 158.07 27.4901 155.72C27.4901 154.88 27.2601 154.06 27.1401 153.23C28.4713 152.968 29.8415 152.975 31.1701 153.25V153.25Z" fill="#5D5D5E"/>
<path d="M415.29 157.12C420.928 157.156 426.559 157.544 432.15 158.28C441.95 159.78 446.59 164.56 446.74 174.41C446.973 189.077 446.973 203.743 446.74 218.41C446.57 229.34 441.24 234.26 429.35 235.15C425.04 235.47 420.72 235.61 416.41 235.83H395.5H365.58C362.2 235.83 358.8 235.58 355.44 235.78C353.01 235.93 352.51 235.11 352.52 232.78C352.6 208.6 352.6 184.42 352.52 160.24C352.52 158 353.09 157 355.23 156.86C366.38 157.44 377.53 157.25 388.67 157.08L415.29 157.12ZM388.24 177.41C387.699 177.289 387.151 177.202 386.6 177.15C382.6 177.03 382.6 177.04 382.6 180.99C382.6 190.77 382.6 200.543 382.6 210.31C382.6 216.31 382.6 216.31 388.75 215.72C396.34 215.72 403.95 216.33 411.52 215.47C415.6 215.01 416.92 213.35 416.93 209.37C416.93 200.703 416.93 192.063 416.93 183.45C416.93 179.28 415.63 177.72 411.56 177.45C403.792 177.043 396.009 177.029 388.24 177.41Z" fill="white"/>
<path d="M247.15 208.19L265.54 208.12C268.69 208.69 271.86 208.22 275.02 208.31C276.25 208.31 276.77 208.63 276.86 210.03C277.14 214.84 277.48 215.15 282.23 215.61C283.8 215.76 285.39 215.69 286.97 215.73C292.62 216.06 298.26 215.87 303.91 215.73C305.654 216.05 307.44 216.07 309.19 215.79C312.09 215.34 313.19 213.52 312.96 210C312.71 206.78 311.78 205.78 308.72 205.68C306.96 205.62 305.18 205.68 303.42 205.77H287.02C286.374 205.679 285.721 205.652 285.07 205.69C282.49 206.1 281.73 205.05 281.89 202.5C282.12 199.07 281.95 195.6 281.95 192.15C281.95 187.52 281.95 187.52 286.49 187.22C292.15 187.6 297.8 187.31 303.49 187.22C305.212 187.651 307.008 187.699 308.75 187.36C310.02 187.18 311.36 187.12 312.18 185.82C314.75 181.77 312.53 177.26 307.8 177.07C306.32 176.853 304.812 176.927 303.36 177.29C297.715 176.955 292.053 176.975 286.41 177.35C285.2 177.35 283.97 177.27 282.76 177.35C277.98 177.67 277.42 178.14 276.9 182.98C276.74 184.52 275.9 184.49 274.84 184.53C271.75 184.64 268.65 184.17 265.58 184.73C260.03 184.49 254.48 184.45 248.93 184.67L246.41 184.21C246.41 180.64 246.31 177.05 246.41 173.48C246.77 165.27 250.33 160.94 258.26 158.85C259.35 158.57 260.46 158.36 261.56 158.12C269.63 157.12 277.76 157.22 285.87 157.12H311.28C317.74 157.41 324.28 157.25 330.58 158.86C336.88 160.47 340.34 164.36 341.35 170.78C341.98 174.78 341.55 178.84 341.81 182.86C342.21 189.01 340.51 193.96 333.93 196.48C338.93 198.48 341.88 201.74 342.21 206.71C342.543 211.583 342.497 216.474 342.07 221.34C341.32 229.55 335.69 233.47 328.39 234.69C322.53 235.69 316.62 235.69 310.71 235.85H281.91H272.91C268.04 235.52 263.16 235.39 258.4 234.12C250.28 231.97 246.83 227.82 246.4 219.37C246.25 215.81 246.4 212.23 246.34 208.66L247.15 208.19Z" fill="white"/>
<path d="M140.69 153.22C150.43 153.17 160.18 152.78 169.92 153.35C169.41 155.79 171.59 155.89 172.92 156.77C170.49 156.83 168.06 156.95 165.62 156.93C164.49 156.93 163.88 157.14 163.89 158.44C163.93 162.947 163.93 167.453 163.89 171.96C163.89 173.25 164.48 173.57 165.62 173.5C166.369 173.499 167.117 173.542 167.86 173.63C167.86 178.963 167.86 184.297 167.86 189.63C167.86 190.63 167.6 191.73 168.63 192.46C167.63 193.15 166.63 193.82 165.63 194.56C162.55 196.88 160.08 200.09 159.63 203.66C158.46 213.66 159.14 223.83 158.98 233.92C158.98 235.74 159.62 236.13 161.28 236.07C163.99 235.98 166.71 236.15 169.42 236.2V239.09H142.35C142.35 230.563 142.367 222.037 142.4 213.51C142.3 212.203 142.368 210.89 142.6 209.6C143.25 207.18 142.89 204.76 142.92 202.34C142.92 200.34 140.51 198.72 142.06 196.48L140.71 196.23C140.94 195.72 141.14 195.23 141.41 194.7C147.83 182.97 154.22 171.22 160.72 159.53C161.88 157.45 161.65 156.88 159.2 156.92C153.66 157.03 148.12 156.92 142.58 156.92C141.88 155.66 140.69 154.75 140.69 153.22Z" fill="#7D7C7C"/>
<path d="M310.72 235.85C316.63 235.68 322.54 235.66 328.4 234.69C335.7 233.47 341.33 229.55 342.08 221.34C342.506 216.474 342.553 211.583 342.22 206.71C341.89 201.71 338.96 198.45 333.94 196.48C340.52 193.96 342.22 189.01 341.82 182.86C341.56 178.86 341.99 174.81 341.36 170.78C340.36 164.36 336.77 160.43 330.59 158.86C324.41 157.29 317.75 157.41 311.29 157.12C311.12 155.82 310.94 154.52 310.76 153.22C323.206 153.18 335.656 153.147 348.11 153.12C350.73 153.12 353.34 153.21 355.96 153.25L355.21 156.89C353.07 157.03 352.48 158.03 352.5 160.27C352.613 184.45 352.613 208.63 352.5 232.81C352.5 235.11 352.99 235.93 355.42 235.81C358.78 235.61 362.18 235.81 365.56 235.86C365.56 236.92 365.51 237.99 365.49 239.05H310.77C310.77 238 310.75 236.92 310.72 235.85Z" fill="#979797"/>
<path d="M70.7 239.05C56.91 239.05 43.12 239.05 29.34 239.13C27.58 239.13 27.09 238.49 27.11 236.82C27.17 230.63 27.11 224.44 27.11 218.25C37.52 218.25 47.93 218.25 58.34 218.25C59.44 218.25 60.6 218.58 61.63 217.9H66.63C67.0941 218.125 67.5981 218.256 68.113 218.285C68.6278 218.314 69.1434 218.241 69.63 218.07C70.4763 218.897 71.0902 219.931 71.41 221.07C71.2438 221.106 71.0896 221.184 70.962 221.296C70.8343 221.409 70.7374 221.551 70.6803 221.712C70.6233 221.872 70.608 222.044 70.6359 222.212C70.6639 222.379 70.7341 222.537 70.84 222.67C72.62 225.81 71 228.83 70.64 231.9C70.64 232.27 70.64 232.65 70.64 233.02C70.5 235 71.21 237 70.7 239.05Z" fill="#5D5D5E"/>
<path d="M169.44 236.16C166.73 236.16 164.01 235.94 161.3 236.03C159.64 236.09 158.97 235.7 159 233.88C159.16 223.79 158.48 213.65 159.65 203.62C160.07 200.05 162.54 196.84 165.65 194.52C166.65 193.78 167.65 193.11 168.65 192.42C170.65 191.26 172.97 190.96 175.18 190.42C180.18 189.29 185.39 189.66 190.49 189.33C198.2 189.33 205.91 189.48 213.61 189.46C220.73 189.46 222.42 187.57 222.03 180.46C222.03 180 221.93 179.53 221.86 179.07C221.25 174.87 220.06 173.62 215.86 173.57C208.53 173.48 201.2 173.57 193.86 173.57H167.86C167.117 173.482 166.369 173.439 165.62 173.44C164.48 173.51 163.88 173.19 163.89 171.9C163.93 167.4 163.93 162.893 163.89 158.38C163.89 157.08 164.49 156.86 165.62 156.87C168.06 156.87 170.49 156.77 172.92 156.71H174.92C175.263 156.853 175.622 156.95 175.99 157H216.43C219.055 157.102 221.66 157.491 224.2 158.16C233.2 160.53 237.93 166.16 238.38 175.39C238.63 180.45 239.01 185.55 237.83 190.54C236.65 195.53 233.6 198.99 228.83 201.2C224.33 203.29 219.61 203.15 214.94 203.33C207.94 203.59 200.85 203.46 193.8 203.5C189.32 203.43 184.8 203.1 180.35 203.89C179.284 204.008 178.288 204.48 177.521 205.23C176.754 205.981 176.261 206.967 176.12 208.03C175.38 211.37 175.95 214.77 175.76 218.14C175.71 219.14 176.33 219.42 177.19 219.41L195.48 219.28C208.62 219.34 221.76 219.47 234.9 219.41C237.2 219.41 237.99 219.87 237.9 222.29C237.68 226.69 237.81 231.11 237.8 235.53L235.63 235.8H234.54C234.083 235.722 233.623 235.669 233.16 235.64C212.7 235.64 192.24 235.683 171.78 235.77C171.139 235.819 170.503 235.923 169.88 236.08C169.81 236.036 169.726 236.019 169.645 236.034C169.563 236.049 169.49 236.094 169.44 236.16ZM160.25 234.24L160.82 234.79C161.7 235.32 162.66 235.04 163.57 235.04C178.323 235.04 193.07 235.04 207.81 235.04C217.29 235.04 226.76 234.95 236.23 234.9C237.35 232 236.63 228.98 236.7 226.01C236.84 220.61 236.75 220.6 231.23 220.6C215.15 220.6 199.063 220.6 182.97 220.6C180.34 220.6 176.9 221.49 175.3 220.18C173.43 218.65 174.7 215.06 174.67 212.38C174.59 204.68 176.78 202.47 184.45 202.38C195.65 202.3 206.84 202.29 218.04 202.25C221.594 202.17 225.105 201.459 228.41 200.15C230.564 199.427 232.481 198.132 233.957 196.404C235.433 194.677 236.412 192.581 236.79 190.34C237.802 184.963 237.927 179.457 237.16 174.04C236.29 167.09 232.86 161.81 225.76 159.79C222.937 158.92 220.012 158.426 217.06 158.32C202.67 158.12 188.27 158.15 173.88 158.12C171.06 158.12 168.24 158.2 165.42 158.24C164.27 161.6 165.06 165.06 164.96 168.47C164.84 172.78 164.23 172.47 168.74 172.47C184.787 172.47 200.833 172.47 216.88 172.47C219.12 172.95 221.56 173.47 222.19 176C224.6 186 222.77 191 213.06 190.67C209.5 190.53 205.92 190.62 202.35 190.67C194.45 190.76 186.54 190.29 178.68 191.08C175.047 191.334 171.505 192.328 168.27 194C162.27 197.31 160.76 203 160.27 209.2C159.843 217.541 159.836 225.898 160.25 234.24V234.24Z" fill="white"/>
<path d="M140.71 196.18L142.06 196.43C140.51 198.67 142.94 200.32 142.92 202.29C142.92 204.71 143.25 207.13 142.6 209.55C142.368 210.84 142.3 212.154 142.4 213.46C142.4 221.987 142.384 230.513 142.35 239.04H113.05L112.99 236.04C113.647 235.897 114.32 235.847 114.99 235.89C117.67 236.41 119.33 235.4 120.48 232.89C121.74 230.17 123.33 227.6 124.78 224.97L140.71 196.18Z" fill="#979797"/>
<path d="M286.49 187.24C281.94 187.54 281.95 187.54 281.95 192.17C281.95 195.62 282.12 199.09 281.89 202.52C281.73 205.07 282.49 206.12 285.07 205.71C285.721 205.672 286.374 205.699 287.02 205.79C287.02 209.1 288.17 212.42 287.02 215.73C285.44 215.73 283.85 215.73 282.28 215.61C277.53 215.15 277.19 214.84 276.91 210.03C276.82 208.63 276.3 208.34 275.07 208.31C271.91 208.22 268.74 208.69 265.59 208.12V184.78C268.66 184.22 271.76 184.69 274.85 184.58C275.94 184.58 276.75 184.58 276.91 183.03C277.43 178.19 277.99 177.72 282.77 177.4C283.98 177.32 285.21 177.4 286.42 177.4L286.49 187.24Z" fill="#5D5D5E"/>
<path d="M113 236L113.06 239H70.7C71.21 237 70.5 234.95 70.63 232.92C70.63 232.55 70.63 232.17 70.63 231.8C70.99 228.73 72.63 225.71 70.83 222.57C70.7241 222.437 70.6539 222.279 70.626 222.112C70.598 221.944 70.6133 221.772 70.6704 221.612C70.7274 221.452 70.8244 221.309 70.952 221.196C71.0797 221.084 71.2339 221.006 71.4 220.97C73.82 225.31 76.29 229.63 78.61 233.97C78.8509 234.556 79.2708 235.05 79.8097 235.382C80.3485 235.714 80.9787 235.868 81.61 235.82C86.41 235.82 91.21 235.82 96 235.96C98 236.01 98 235.26 97.16 233.79C91.2533 223.123 85.3667 212.413 79.5 201.66C71.8333 187.64 64.1667 173.57 56.5 159.45C57.5 158.86 58.57 158.45 58.44 156.95C58.44 156.66 59.01 156.68 59.31 156.95C59.4905 157.584 59.7212 158.203 60 158.8C73.24 183.12 86.56 207.41 99.67 231.8C101.32 234.87 103.06 236.7 106.67 236.16C108.203 236.506 109.796 236.485 111.32 236.1L113 236Z" fill="#7D7C7C"/>
<path d="M56.5005 159.45C64.1671 173.563 71.8538 187.667 79.5605 201.76C85.4205 212.493 91.3071 223.203 97.2205 233.89C98.0305 235.36 98.0905 236.11 96.0605 236.06C91.2705 235.95 86.4705 235.87 81.6705 235.92C81.0392 235.968 80.409 235.814 79.8701 235.482C79.3313 235.15 78.9114 234.656 78.6705 234.07C76.3505 229.68 73.8805 225.36 71.4605 221.07C71.1407 219.931 70.5268 218.897 69.6805 218.07C69.231 217.802 68.7236 217.647 68.2013 217.618C67.679 217.588 67.1573 217.685 66.6805 217.9H61.6805C61.2307 217.791 60.7724 217.72 60.3105 217.69L25.2005 217.63C24.6405 217.63 24.0605 217.55 23.6405 218.05C22.9928 218.647 22.5604 219.442 22.4105 220.31C22.1305 220.72 21.9905 221.11 22.5905 221.37H22.5205C21.3405 220.9 21.3905 222.07 21.1205 222.56C19.3605 225.66 17.7005 228.82 16.0105 231.97C14.8205 234.19 13.3505 234.64 11.5905 233.07C9.89857 231.626 8.36041 230.011 7.00047 228.25C4.18047 224.43 3.18047 220.78 6.00047 215.97C13.1005 203.83 19.5405 191.3 26.2405 178.92C29.9305 172.34 33.6805 165.8 37.2405 159.16C37.5276 158.438 38.0475 157.833 38.7177 157.44C39.388 157.046 40.1702 156.888 40.9405 156.99C44.6805 157.12 48.4405 157.16 52.1805 156.93C54.3305 156.79 55.6705 157.52 56.5005 159.45ZM23.7305 216.78C39.1805 217.08 54.6305 217.03 70.0705 216.78C70.8344 217.333 71.4187 218.098 71.7505 218.98C74.2505 223.61 76.8105 228.21 79.1905 232.9C79.4293 233.554 79.8826 234.108 80.4764 234.471C81.0703 234.834 81.7696 234.985 82.4605 234.9C86.2205 234.79 89.9905 234.81 93.7505 234.9C95.8405 234.9 96.2205 234.42 95.1405 232.51C92.1405 227.29 89.3405 221.98 86.4605 216.71C76.0938 197.757 65.7271 178.807 55.3605 159.86C55.1371 159.303 54.7402 158.833 54.2286 158.52C53.717 158.206 53.118 158.066 52.5205 158.12C48.7605 158.25 44.9905 158.23 41.2205 158.12C40.5288 158.048 39.8326 158.204 39.2384 158.566C38.6442 158.927 38.1847 159.473 37.9305 160.12C35.3405 165.03 32.6405 169.87 29.9905 174.74C22.2605 188.92 14.6005 203.14 6.71047 217.23C5.35047 219.66 4.55047 221.79 5.80047 224.31C7.23034 227.284 9.38254 229.852 12.0605 231.78C13.5305 232.78 14.4105 232.71 15.3005 230.94C17.3805 226.81 19.6805 222.78 21.8805 218.71C22.3205 217.84 22.5305 216.83 23.7305 216.78Z" fill="white"/>
<path d="M195.49 219.38L177.2 219.51C176.34 219.51 175.72 219.26 175.77 218.24C175.96 214.87 175.39 211.47 176.13 208.13C176.271 207.067 176.764 206.081 177.531 205.33C178.298 204.58 179.294 204.108 180.36 203.99C184.85 203.2 189.36 203.53 193.81 203.6C192.28 207.3 192.81 211.2 192.65 215.04C192.59 216.85 192.65 218.4 195.01 218.46C195.18 218.47 195.33 219.06 195.49 219.38Z" fill="#5D5D5E"/>
<path d="M415.29 157.12H388.66C389.033 156.55 389.247 155.89 389.279 155.21C389.31 154.529 389.159 153.852 388.84 153.25H410.69H412.06C416.1 153.36 416.1 153.36 415.29 157.12Z" fill="#5D5D5E"/>
<path d="M365.51 239C365.51 237.94 365.56 236.87 365.58 235.81H395.52C395.17 237.02 393.78 237.64 393.73 239.02L365.51 239Z" fill="#7D7C7C"/>
<path d="M310.72 235.85C310.72 236.92 310.72 237.98 310.79 239.05H282.59C282.36 237.98 282.14 236.91 281.92 235.85H310.72Z" fill="#7D7C7C"/>
<path d="M285.88 157.14C277.77 157.27 269.64 157.14 261.57 158.14C263.77 156.92 262.83 154.96 262.73 153.19H285.9C285.89 154.53 285.88 155.83 285.88 157.14Z" fill="#5D5D5E"/>
<path d="M393.73 239C393.73 237.62 395.17 237 395.52 235.79H416.43C417.43 239.05 417.43 239.06 413.61 239.05C406.984 239.077 400.357 239.06 393.73 239Z" fill="#5D5D5E"/>
<path d="M169.44 236.16C169.5 236.111 169.574 236.085 169.65 236.085C169.727 236.085 169.801 236.111 169.86 236.16C170.97 236.23 172.08 236.35 173.19 236.35C180.09 236.35 186.99 236.35 193.88 236.42C193.45 238.55 192.15 239.18 190.02 239.14C183.16 239 176.3 239.05 169.44 239.03V236.16Z" fill="#5D5D5E"/>
<path d="M174.92 156.77H172.92C171.62 155.89 169.44 155.77 169.92 153.35C175.054 153.002 180.204 152.978 185.34 153.28C185.66 154.28 184.15 155.71 185.98 156.42L174.92 156.77Z" fill="#5D5D5E"/>
<path d="M193.88 236.44C186.99 236.44 180.09 236.44 173.19 236.37C172.08 236.37 170.97 236.25 169.86 236.18C170.484 236.022 171.119 235.919 171.76 235.87C192.22 235.81 212.68 235.767 233.14 235.74C233.603 235.769 234.064 235.822 234.52 235.9C233.58 236.55 232.52 236.23 231.52 236.24C218.974 236.333 206.427 236.4 193.88 236.44Z" fill="#7D7C7C"/>
<path d="M281.92 235.82C282.14 236.88 282.36 237.95 282.59 239.02C280.43 239.02 278.26 238.97 276.11 239.15C273.57 239.37 272.68 238.15 272.88 235.84L281.92 235.82Z" fill="#5D5D5E"/>
<path d="M174.92 156.77L185.98 156.42C194.98 156.48 203.98 156.52 212.9 156.62C214.08 156.62 215.34 156.31 216.43 157.1H175.99C175.62 157.038 175.261 156.927 174.92 156.77Z" fill="#7D7C7C"/>
<path d="M23.5996 218C24.0196 217.5 24.5996 217.58 25.1596 217.58L60.2696 217.64C60.7315 217.67 61.1899 217.741 61.6396 217.85C60.6396 218.53 59.4496 218.2 58.3496 218.2C47.9396 218.2 37.5296 218.2 27.1196 218.2H24.2996L23.5996 218Z" fill="#979797"/>
<path d="M24.8703 223.7C25.1911 224.267 25.3721 224.901 25.3982 225.552C25.4243 226.202 25.2947 226.85 25.0203 227.44C24.6059 226.911 24.3684 226.266 24.3414 225.594C24.3145 224.923 24.4995 224.26 24.8703 223.7V223.7Z" fill="#5D5D5E"/>
<path d="M23.6001 218L24.3001 218.19C23.9101 219.12 24.8301 221.26 22.3701 220.26C22.52 219.392 22.9524 218.597 23.6001 218V218Z" fill="#5D5D5E"/>
<path d="M246.37 184.26L248.89 184.72C248 184.87 247 185.4 246.37 184.26Z" fill="#5D5D5E"/>
<path d="M235.61 235.9L237.78 235.63C237.18 236.74 236.4 236.33 235.61 235.9Z" fill="#7D7C7C"/>
<path d="M247.15 208.19L246.36 208.65C246.368 208.561 246.397 208.475 246.446 208.399C246.494 208.324 246.559 208.261 246.636 208.216C246.714 208.171 246.801 208.145 246.89 208.14C246.98 208.136 247.069 208.153 247.15 208.19V208.19Z" fill="#5D5D5E"/>
<path d="M22.5505 221.34L22.8305 221.7C22.4105 221.96 22.6005 221.49 22.4805 221.4L22.5505 221.34Z" fill="#5D5D5E"/>
<path d="M77.4097 153.25L107.41 153.19C108.14 156.13 107.97 159.13 107.97 162.12C107.97 171.51 107.97 180.89 107.97 190.28C107.97 192.13 107.2 194.07 107.55 195.81C108.31 199.65 107.77 203.48 107.98 207.3C107.98 208.16 108.04 209.05 106.85 209.19L106.28 206.35C106.461 206.177 106.606 205.969 106.705 205.739C106.803 205.509 106.854 205.261 106.854 205.01C106.854 204.759 106.803 204.511 106.705 204.281C106.606 204.051 106.461 203.843 106.28 203.67C105.22 204.72 105.97 205.53 106.28 206.36L105.22 207.45C104.76 206.64 104.28 205.83 103.84 205C95.7264 189.667 87.6331 174.357 79.5597 159.07C79.3074 158.487 78.9171 157.973 78.4224 157.575C77.9276 157.176 77.3433 156.903 76.7197 156.78C76.9197 155.6 77.1597 154.42 77.4097 153.25Z" fill="#7D7C7C"/>
<path d="M76.6705 156.78C77.294 156.903 77.8784 157.176 78.3731 157.574C78.8679 157.973 79.2582 158.487 79.5105 159.07C87.5638 174.403 95.6571 189.713 103.79 205C104.23 205.83 104.71 206.64 105.17 207.45C105.256 208.149 105.616 208.786 106.17 209.22L106.78 210.07C107.662 212.667 108.897 215.13 110.45 217.39C112.12 214.29 113.54 211.67 114.94 209.03L142.6 156.83C148.14 156.83 153.68 156.98 159.22 156.83C161.67 156.83 161.9 157.36 160.74 159.44C154.24 171.13 147.85 182.88 141.43 194.61C141.16 195.1 140.96 195.61 140.73 196.14L124.73 224.95C123.28 227.58 121.73 230.15 120.43 232.87C119.28 235.36 117.62 236.37 114.94 235.87C114.27 235.827 113.597 235.877 112.94 236.02L111.2 236.09C109.681 235.635 108.058 235.656 106.55 236.15C102.97 236.69 101.23 234.86 99.5505 231.79C86.4405 207.39 73.1205 183.1 59.8805 158.79C59.6163 158.198 59.399 157.586 59.2305 156.96L61.5805 156.78C66.4323 157.275 71.3229 157.255 76.1705 156.72C76.1988 156.757 76.2345 156.789 76.2752 156.812C76.316 156.836 76.3611 156.851 76.4077 156.856C76.4544 156.862 76.5017 156.858 76.5468 156.845C76.592 156.832 76.634 156.81 76.6705 156.78ZM110.48 219.85C109.68 218.43 109.1 217.46 108.58 216.47C98.5805 197.63 88.6005 178.783 78.6405 159.93C78.0005 158.71 77.3705 158.06 75.9005 158.09C71.7605 158.19 67.6105 158.19 63.4805 158.09C61.3805 158.09 60.9905 158.64 62.0405 160.49C64.5905 164.99 67.0405 169.54 69.4905 174.08C80.2105 193.693 90.9238 213.303 101.63 232.91C102.25 234.04 102.85 234.91 104.38 234.84C108.23 234.73 112.09 234.71 115.95 234.84C116.644 234.891 117.336 234.716 117.922 234.341C118.507 233.966 118.956 233.411 119.2 232.76C124.347 223.26 129.534 213.787 134.76 204.34C142.68 189.933 150.597 175.53 158.51 161.13C160.11 158.21 160.04 158.13 156.75 158.13C152.8 158.13 148.84 158.19 144.89 158.13C144.341 158.068 143.786 158.188 143.311 158.472C142.836 158.755 142.467 159.187 142.26 159.7C136.5 170.7 130.67 181.62 124.87 192.58C120.13 201.52 115.42 210.49 110.48 219.85Z" fill="white"/>
<path d="M76.2502 156.73C71.4026 157.265 66.512 157.285 61.6602 156.79C64.3102 156.61 66.9202 155.93 69.6602 156.43C70.3102 156.55 72.1102 157.77 72.2702 155.29C72.2702 154.53 74.1002 154.97 75.0902 154.95C76.3002 154.93 76.2802 155.85 76.2502 156.73Z" fill="#7D7C7C"/>
<path d="M142.58 156.83L114.92 209C113.52 211.64 112.1 214.26 110.43 217.36C108.876 215.1 107.641 212.637 106.76 210.04C106.76 209.74 106.76 209.45 106.76 209.15C107.95 209.01 107.94 208.15 107.89 207.26C107.68 203.44 108.22 199.61 107.46 195.77C107.11 194.03 107.87 192.09 107.88 190.24C107.88 180.85 107.88 171.47 107.88 162.08C107.88 159.08 108.05 156.08 107.32 153.15H140.64C140.69 154.75 141.88 155.66 142.58 156.83Z" fill="#979797"/>
<path d="M388.84 153.24C389.159 153.842 389.31 154.519 389.279 155.2C389.247 155.88 389.033 156.54 388.66 157.11C377.51 157.28 366.36 157.47 355.21 156.89L355.96 153.25C366.92 153.09 377.88 152.92 388.84 153.24Z" fill="#7D7C7C"/>
<path d="M285.88 157.14C285.88 155.83 285.88 154.53 285.88 153.22H310.74C310.92 154.52 311.1 155.82 311.27 157.12L285.88 157.14Z" fill="#7D7C7C"/>
<path d="M247.43 59.7C247.43 58.85 247.43 58.01 247.43 57.16C247.43 53.26 247.71 53.06 251.5 54.38C252.835 54.8504 253.949 55.7983 254.626 57.0409C255.304 58.2835 255.498 59.733 255.17 61.11C254.4 63.84 250.69 66.22 248.17 65.7C247.34 65.53 247.42 65.02 247.42 64.49C247.42 62.89 247.43 61.3 247.43 59.7Z" fill="#3B3A3A"/>
<path d="M201.41 60C201.41 61 201.41 62.07 201.41 63.1C201.41 66.1 201.1 66.25 198.16 65.3C194.97 64.3 193.79 62.18 194.31 58.52C194.589 57.1853 195.315 55.9856 196.367 55.1185C197.42 54.2515 198.736 53.7688 200.1 53.75C201.27 53.75 201.55 54.18 201.52 55.22C201.47 56.82 201.52 58.41 201.52 60.01L201.41 60Z" fill="#3B3A3A"/>
<path d="M388.24 177.41C396.018 177.015 403.811 177.015 411.59 177.41C415.66 177.68 416.95 179.24 416.96 183.41C416.96 192.077 416.96 200.717 416.96 209.33C416.96 213.33 415.63 214.97 411.55 215.43C403.98 216.29 396.37 215.72 388.78 215.68C388.443 214.807 388.228 213.892 388.14 212.96C388.2 201.127 388.233 189.277 388.24 177.41Z" fill="#5D5D5E"/>
<path d="M388.24 177.41C388.24 189.27 388.207 201.133 388.14 213C388.228 213.932 388.444 214.847 388.78 215.72C382.63 216.33 382.63 216.33 382.63 210.31C382.63 200.537 382.63 190.763 382.63 180.99C382.63 176.99 382.63 176.99 386.63 177.15C387.171 177.204 387.709 177.29 388.24 177.41V177.41Z" fill="#7D7C7C"/>
<path d="M286.49 187.24L286.37 177.4C292.013 177.025 297.674 177.005 303.32 177.34C303.32 180.65 303.41 183.96 303.45 187.27C297.8 187.33 292.15 187.62 286.49 187.24Z" fill="#7D7C7C"/>
<path d="M287 215.73C288.2 212.42 287.07 209.1 287 205.79H303.4C303.49 209.11 303.16 212.46 303.89 215.79C298.26 215.87 292.62 216.06 287 215.73Z" fill="#7D7C7C"/>
<path d="M303.45 187.27C303.45 183.96 303.36 180.65 303.32 177.34C304.772 176.977 306.28 176.903 307.76 177.12C312.49 177.31 314.71 181.82 312.14 185.87C311.32 187.17 309.98 187.23 308.71 187.41C306.968 187.749 305.172 187.701 303.45 187.27V187.27Z" fill="#979797"/>
<path d="M303.91 215.73C303.18 212.44 303.51 209.09 303.42 205.73C305.18 205.73 306.96 205.58 308.72 205.64C311.78 205.74 312.72 206.74 312.96 209.96C313.23 213.48 312.09 215.3 309.19 215.75C307.442 216.043 305.656 216.036 303.91 215.73V215.73Z" fill="#979797"/>
<path d="M167.83 173.63H193.83C192.76 177.15 194.38 181.12 191.92 184.44C191.26 185.32 192.59 185.26 192.92 185.7C193.82 186.87 196.15 186.43 196.25 188.55C194.33 189.37 192.25 188.12 190.44 189.36C185.34 189.69 180.17 189.36 175.13 190.45C172.92 190.95 170.62 191.25 168.6 192.45C167.6 191.72 167.84 190.62 167.83 189.62C167.817 184.28 167.817 178.95 167.83 173.63Z" fill="#5D5D5E"/>
<path d="M66.6299 217.9C67.1067 217.685 67.6284 217.588 68.1507 217.618C68.673 217.647 69.1804 217.802 69.6299 218.07C69.1433 218.241 68.6278 218.314 68.1129 218.285C67.598 218.256 67.094 218.125 66.6299 217.9Z" fill="#979797"/>
<path d="M160.25 209.22C160.76 203.01 162.25 197.33 168.25 194.02C171.486 192.352 175.029 191.361 178.66 191.11C186.52 190.32 194.43 190.79 202.33 190.7C205.9 190.7 209.48 190.57 213.04 190.7C222.75 191.06 224.58 186.03 222.17 176.03C221.54 173.45 219.1 173.03 216.86 172.5C215.66 171.55 214.23 172.01 212.92 172.01C197.814 171.97 182.707 171.97 167.6 172.01C165.85 172.01 165.31 171.51 165.36 169.79C165.46 165.95 165.36 162.1 165.36 158.25C168.18 158.25 171 158.12 173.82 158.13C188.21 158.13 202.61 158.13 217 158.33C219.952 158.436 222.877 158.93 225.7 159.8C232.8 161.8 236.23 167.1 237.1 174.05C237.868 179.467 237.743 184.973 236.73 190.35C236.353 192.591 235.373 194.687 233.898 196.414C232.422 198.142 230.504 199.437 228.35 200.16C225.045 201.469 221.534 202.18 217.98 202.26C206.78 202.26 195.59 202.31 184.39 202.39C176.72 202.45 174.53 204.66 174.61 212.39C174.61 215.07 173.37 218.66 175.24 220.19C176.84 221.5 180.24 220.61 182.91 220.61C199.004 220.61 215.09 220.61 231.17 220.61C236.69 220.61 236.78 220.61 236.64 226.02C236.57 229.02 237.29 232.02 236.18 234.91C234.25 234.34 232.28 234.73 230.33 234.73C207.144 234.73 183.954 234.753 160.76 234.8L160.19 234.25L160.25 209.22Z" fill="#E5383C"/>
<path d="M190.43 189.37C192.21 188.13 194.32 189.37 196.24 188.56C196.14 186.44 193.81 186.88 192.91 185.71C192.58 185.27 191.25 185.33 191.91 184.45C194.37 181.13 192.75 177.16 193.82 173.64C201.15 173.64 208.48 173.51 215.82 173.64C220.01 173.69 221.2 174.94 221.82 179.14C221.89 179.6 221.96 180.07 221.99 180.53C222.38 187.65 220.69 189.53 213.57 189.53C205.85 189.52 198.14 189.42 190.43 189.37Z" fill="#3B3A3A"/>
<path d="M160.82 234.79C184.007 234.79 207.197 234.767 230.39 234.72C232.39 234.72 234.31 234.33 236.24 234.9C226.76 234.9 217.24 235.02 207.81 235.04C193.07 235.04 178.324 235.04 163.57 235.04C162.66 235 161.7 235.32 160.82 234.79Z" fill="#979797"/>
<path d="M165.42 158.27C165.42 162.12 165.48 165.97 165.42 169.81C165.42 171.53 165.91 172.04 167.66 172.03C182.767 171.963 197.874 171.963 212.98 172.03C214.29 172.03 215.72 171.57 216.92 172.52C200.874 172.52 184.827 172.52 168.78 172.52C164.27 172.52 164.88 172.86 165 168.52C165.06 165.09 164.27 161.63 165.42 158.27Z" fill="#7D7C7C"/>
<path d="M160.25 209.22V234.22C159.831 225.892 159.831 217.548 160.25 209.22V209.22Z" fill="#979797"/>
<path d="M106.6 236.17C108.107 235.676 109.73 235.655 111.25 236.11C109.726 236.495 108.133 236.516 106.6 236.17V236.17Z" fill="#979797"/>
<path d="M23.7298 216.78C22.5298 216.83 22.3198 217.84 21.8798 218.66C19.6798 222.73 17.3798 226.76 15.2998 230.89C14.4098 232.66 13.5298 232.76 12.0598 231.73C9.38184 229.802 7.22964 227.234 5.79977 224.26C4.54977 221.74 5.34977 219.61 6.70977 217.18C14.5998 203.09 22.2598 188.87 29.9998 174.69C32.6498 169.82 35.3498 164.98 37.9398 160.07C38.194 159.423 38.6535 158.877 39.2477 158.516C39.8419 158.154 40.5381 157.998 41.2298 158.07C44.9998 158.19 48.7698 158.21 52.5298 158.07C53.1273 158.016 53.7263 158.156 54.2379 158.47C54.7495 158.783 55.1464 159.253 55.3698 159.81C65.7164 178.757 76.0831 197.707 86.4698 216.66C89.3498 221.93 92.1698 227.24 95.1498 232.46C96.2298 234.37 95.8498 234.89 93.7598 234.85C89.9998 234.78 86.2298 234.76 82.4698 234.85C81.7789 234.935 81.0796 234.784 80.4857 234.421C79.8919 234.058 79.4386 233.504 79.1998 232.85C76.8198 228.16 74.2598 223.56 71.7598 218.93C71.4281 218.05 70.8479 217.286 70.0898 216.73C57.8231 216.67 45.5498 216.607 33.2698 216.54C30.0798 216.6 26.9098 216.72 23.7298 216.78ZM46.8098 171.69C46.4598 172.38 46.3398 172.63 46.2098 172.87L28.9998 203.94C27.9998 205.71 29.2098 205.72 30.4698 205.72C41.2898 205.72 52.1198 205.72 62.9398 205.72C64.9398 205.72 65.2098 205.26 64.2298 203.51C59.9698 195.89 55.8098 188.22 51.6098 180.56L46.8098 171.69Z" fill="#E5383C"/>
<path d="M23.7305 216.78C26.9105 216.72 30.0805 216.6 33.2605 216.61C45.5405 216.657 57.8138 216.72 70.0805 216.8C54.6305 217 39.1805 217.08 23.7305 216.78Z" fill="#979797"/>
<path d="M106.23 206.36C105.96 205.53 105.23 204.72 106.23 203.67C106.412 203.843 106.557 204.051 106.655 204.281C106.754 204.511 106.805 204.759 106.805 205.01C106.805 205.261 106.754 205.509 106.655 205.739C106.557 205.969 106.412 206.177 106.23 206.35V206.36Z" fill="#979797"/>
<path d="M106.15 209.22C105.596 208.786 105.236 208.149 105.15 207.45L106.21 206.36L106.78 209.2L106.15 209.22Z" fill="#979797"/>
<path d="M110.48 219.85C115.42 210.49 120.13 201.52 124.87 192.56C130.67 181.56 136.5 170.65 142.26 159.68C142.466 159.167 142.835 158.735 143.31 158.452C143.785 158.168 144.34 158.048 144.89 158.11C148.89 158.18 152.8 158.11 156.75 158.11C160.04 158.11 160.11 158.21 158.51 161.11C150.596 175.523 142.68 189.927 134.76 204.32C129.56 213.793 124.373 223.267 119.2 232.74C118.955 233.391 118.506 233.946 117.921 234.321C117.335 234.696 116.643 234.871 115.95 234.82C112.09 234.7 108.23 234.72 104.38 234.82C102.85 234.82 102.25 234.02 101.63 232.89C90.9629 213.27 80.2496 193.66 69.4896 174.06C66.9996 169.56 64.5896 165 61.9996 160.51C60.9996 158.66 61.3396 158.07 63.4396 158.11C67.5696 158.19 71.7196 158.19 75.8596 158.11C77.3296 158.11 77.9596 158.73 78.5996 159.95C88.5462 178.823 98.5262 197.67 108.54 216.49C109.1 217.46 109.68 218.43 110.48 219.85Z" fill="#E5383C"/>
<path d="M106.15 209.22H106.8C106.8 209.52 106.8 209.81 106.8 210.11L106.15 209.22Z" fill="#7D7C7C"/>
<path d="M46.81 171.69L51.65 180.56C55.85 188.22 60.01 195.89 64.27 203.51C65.27 205.26 64.94 205.73 62.98 205.72C52.16 205.72 41.33 205.72 30.51 205.72C29.25 205.72 28.06 205.72 29.04 203.94L46.21 172.87C46.34 172.63 46.46 172.38 46.81 171.69ZM46.81 173.94C41.49 183.66 36.48 192.94 31.34 202.08C30.13 204.26 30.56 204.67 32.91 204.65C42.6 204.54 52.29 204.57 61.99 204.54C62.41 204.54 62.94 204.74 63.2 203.94C57.82 194.18 52.43 184.3 46.77 173.94H46.81Z" fill="white"/>
<path d="M46.7697 173.94C52.4297 184.3 57.7697 194.18 63.1597 203.94C62.8997 204.74 62.3697 204.54 61.9497 204.54C52.2497 204.54 42.5597 204.54 32.8697 204.65C30.5197 204.65 30.0897 204.26 31.2997 202.08C36.4397 192.91 41.4497 183.66 46.7697 173.94Z" fill="#5D5D5E"/>
</g>
<defs>
<clipPath id="clip0_429_2455">
<rect width="457.66" height="246.05" fill="white"/>
</clipPath>
</defs>
</svg>
